<svg id="Your_Artwork" data-name="Your Artwork" xmlns="http://www.w3.org/2000/svg" viewBox="0 0 537.31 72"><defs><style>.cls-1{fill:#00a7e1;}.cls-2{fill:#a6aaad;}</style></defs><path class="cls-1" d="M5.93,54.64S13.16,63,23.71,63c6.62,0,12.15-4,12.15-10.36,0-14.6-34.25-12.33-34.25-34C1.61,8.19,11,0,24.31,0,31.84,0,44.5,3.36,44.5,12.82v5.72H35.26V15.29C35.26,11.64,29.93,9,24.31,9c-7.64,0-12.46,4.14-12.46,9.36C11.85,32.45,46,29.3,46,52.18,46,62.83,37.57,72,23.5,72A31.87,31.87,0,0,1,0,61.65l5.93-7Z"/><path class="cls-1" d="M45.71,63.23h4.47A2.06,2.06,0,0,0,52.46,61V0h9.45L94.52,45.59c2.7,3.87,6.12,9.79,6.12,9.79h.21a95.73,95.73,0,0,1-.73-9.79V6.53c0-4.59,2-6.53,6.75-6.53h10.39V8.77h-4.47A2,2,0,0,0,110.51,11V72h-9.35L68.45,26.42c-2.7-3.88-6-9.79-6-9.79h-.21s.62,5.81.62,9.79V65.47c0,4.59-2,6.53-6.64,6.53H45.71V63.23Z"/><path class="cls-1" d="M153.33,62.72c14.36,0,26-11.83,26-27.21a26,26,0,0,0-26-26.34c-14.37,0-25.92,11.44-25.92,26.34,0,15.38,11.55,27.21,25.92,27.21Zm0-62.72c20.49,0,36.46,15.49,36.46,35.51A36,36,0,0,1,153.33,72C132.84,72,117,56,117,35.51,117,15.49,132.84,0,153.33,0Z"/><path class="cls-1" d="M189.49,63.23H193A2.1,2.1,0,0,0,195.3,61l5-61H211l17.24,38.15c1.76,3.87,3.64,9.07,3.64,9.07h.2s1.87-5.2,3.64-9.07L253,0h10.69l5,61a2.11,2.11,0,0,0,2.28,2.24h3.43V72H265.1c-4.68,0-6.34-1.94-6.65-6.53l-3-38c-.31-4.29-.21-10.61-.21-10.61H255s-2.07,6.73-3.84,10.61L236.33,59.05h-8.72L212.75,27.44c-1.76-3.78-3.94-10.71-3.94-10.71h-.21s.1,6.42-.21,10.71l-2.9,38c-.32,4.59-2,6.53-6.75,6.53h-9.25V63.23Z"/><path class="cls-1" d="M280.8,8.77H274V0h43.1c4.68,0,6.65,1.94,6.65,6.53v9.08h-9.45V11a2,2,0,0,0-2.28-2.24H291.18V31.31h25.65v8.77H291.18V61a2.06,2.06,0,0,0,2.29,2.24h21.39A2.06,2.06,0,0,0,317.14,61V56.4h9.56v9.07c0,4.59-2,6.53-6.65,6.53H287.44c-4.67,0-6.64-1.94-6.64-6.53V8.77Z"/><path class="cls-1" d="M345.82,63.23h9.56c16.3,0,27-9.59,27-27.33s-10.8-27.13-27-27.13H343.54V61a2.06,2.06,0,0,0,2.28,2.24ZM333.15,8.77H326.4V0h29.71c22.32,0,37.07,13.16,37.07,35.9S378.43,72,356.11,72H339.8c-4.67,0-6.65-1.94-6.65-6.53V8.77Z"/><path class="cls-2" d="M446,0c9.54,0,26.61,3.94,26.61,15.09V21.9h-9.24V18c0-5.82-10-8.78-17.18-8.78-14.26,0-25.3,10.56-25.3,26.24,0,15.19,11.14,27.31,25.61,27.31a31.64,31.64,0,0,0,22.39-9.46l5.42,7.1A38.69,38.69,0,0,1,446.42,72c-21.2,0-36-16.07-36-36.59C410.46,15.29,425.73,0,446,0Z"/><path class="cls-2" d="M501.69,8.77H486.94A2,2,0,0,0,484.66,11V15.6h-9.25V6.12c0-4.6,1.56-6.12,6.23-6.12h50.48c4.67,0,6.23,1.52,6.23,6.12V15.6h-9.24V11a2,2,0,0,0-2.29-2.24H512.08V72H501.69V8.77Z"/></svg>