<svg id="Your_Artwork" data-name="Your Artwork" xmlns="http://www.w3.org/2000/svg" viewBox="0 0 324 95.34"><defs><style>.cls-1{fill:#434a55;}.cls-2{fill:#00a7e1;}.cls-3{fill:#a6aaad;}</style></defs><path class="cls-1" d="M245.45,54.14h-2.11a.3.3,0,0,0-.33.33v.65h-1.33V53.76c0-.66.23-.88.9-.88h7.24c.67,0,.89.22.89.88v1.36h-1.32v-.65a.3.3,0,0,0-.33-.33h-2.12v9.08h-1.49V54.14Z"/><path class="cls-1" d="M252.15,54.42a.29.29,0,0,0-.33-.32h-.61V52.88h1.43c.67,0,1,.28,1,.91v2.89a5.9,5.9,0,0,1,0,.61h0a3,3,0,0,1,2.8-1.65c1.77,0,2.58,1,2.58,2.84v3.2a.3.3,0,0,0,.33.33h.61v1.21H258.5c-.67,0-.95-.28-.95-.94V58.8c0-1-.23-1.86-1.44-1.86a2.47,2.47,0,0,0-2.38,1.83,3.06,3.06,0,0,0-.13,1v3.47h-1.45v-8.8Z"/><path class="cls-1" d="M266.16,58.65a1.78,1.78,0,0,0-1.78-1.89,2.16,2.16,0,0,0-2.22,1.89Zm-1.76-3a3.18,3.18,0,0,1,3.25,3.47c0,.19,0,.58,0,.58h-5.5a2.51,2.51,0,0,0,2.59,2.48,3.49,3.49,0,0,0,2.21-.87l.63,1a4.45,4.45,0,0,1-2.91,1.09,3.81,3.81,0,0,1-4-3.88,3.67,3.67,0,0,1,3.79-3.88Z"/><path class="cls-1" d="M277.73,59.36c0-1.94-1-2.49-2.13-2.49-1.31,0-2.06.93-2.06,2.44s.82,2.59,2.18,2.59c1,0,2-.61,2-2.54Zm-2.36-3.72a2.53,2.53,0,0,1,2.42,1.15h0v-.23c0-.44.24-.75.83-.75h1.41V57h-.6a.29.29,0,0,0-.33.29v5.59c0,2.45-1.89,3.39-3.8,3.39a6,6,0,0,1-2.58-.62l.49-1.14a4.84,4.84,0,0,0,2.06.5c1.31,0,2.38-.57,2.38-2.07v-.49a4.14,4.14,0,0,1,0-.47h0a2.42,2.42,0,0,1-2.25,1.12c-2.08,0-3.37-1.65-3.37-3.79s1.21-3.7,3.31-3.7Z"/><path class="cls-1" d="M281.44,54.42a.29.29,0,0,0-.33-.32h-.61V52.88h1.43c.67,0,1,.28,1,.94v7.86a.3.3,0,0,0,.33.33h.61v1.21h-1.44c-.67,0-.95-.28-.95-.94V54.42Z"/><path class="cls-1" d="M288.59,62.17A2.65,2.65,0,1,0,286,59.5a2.58,2.58,0,0,0,2.58,2.67Zm0-6.53a3.88,3.88,0,1,1-4.06,3.86,3.9,3.9,0,0,1,4.06-3.86Z"/><path class="cls-1" d="M297.72,62.18c1.2,0,2.18-1,2.18-2.65s-.88-2.65-2.15-2.65c-1.11,0-2.16.78-2.16,2.67,0,1.32.7,2.63,2.13,2.63Zm-3.54-7.76a.29.29,0,0,0-.33-.32h-.61V52.88h1.43c.67,0,.95.28.95.94v2.42a5.9,5.9,0,0,1,0,.61h0a2.73,2.73,0,0,1,2.43-1.21c2,0,3.31,1.58,3.31,3.88s-1.44,3.88-3.43,3.88a2.73,2.73,0,0,1-2.37-1.25h0a5,5,0,0,1,0,.56v.51h-1.38v-8.8Z"/><path class="cls-1" d="M305.26,62.26a2.26,2.26,0,0,0,2-2.36v-.25h-.38c-1.08,0-3,.06-3,1.42a1.25,1.25,0,0,0,1.41,1.19Zm1.67-3.65h.33v-.07c0-1.31-.49-1.78-1.67-1.78-.36,0-1.24.09-1.24.57v.43H303V57c0-1.22,1.88-1.39,2.61-1.39,2.44,0,3.1,1.26,3.1,2.9v3.14A.3.3,0,0,0,309,62h.61v1.21h-1.36c-.67,0-.94-.32-.94-.85a3.13,3.13,0,0,1,0-.44h0A2.56,2.56,0,0,1,305,63.4a2.34,2.34,0,0,1-2.56-2.26c0-2.38,3.28-2.53,4.54-2.53Z"/><path class="cls-1" d="M311,54.42a.29.29,0,0,0-.33-.32H310V52.88h1.43c.67,0,.95.28.95.94v7.86a.3.3,0,0,0,.33.33h.61v1.21h-1.43c-.67,0-1-.28-1-.94V54.42Z"/><path class="cls-1" d="M244.19,69.07a.29.29,0,0,0-.33-.32h-.61V67.53h1.43c.67,0,.95.28.95.94v7.86a.29.29,0,0,0,.33.32h.61v1.22h-1.43c-.67,0-.95-.28-.95-.94V69.07Z"/><path class="cls-1" d="M250.33,76.9a2.26,2.26,0,0,0,2-2.36v-.25H252c-1.09,0-3.06.06-3.06,1.42a1.26,1.26,0,0,0,1.42,1.19ZM252,73.25h.33v-.07c0-1.3-.49-1.77-1.67-1.77-.36,0-1.24.09-1.24.57v.42h-1.36v-.73c0-1.21,1.88-1.39,2.61-1.39,2.45,0,3.1,1.26,3.1,2.9v3.15a.29.29,0,0,0,.33.32h.61v1.22h-1.35c-.67,0-.94-.33-.94-.85a3.13,3.13,0,0,1,0-.44h0A2.58,2.58,0,0,1,250,78a2.35,2.35,0,0,1-2.57-2.25c0-2.39,3.28-2.54,4.55-2.54Z"/><path class="cls-1" d="M256.14,72a.29.29,0,0,0-.33-.32h-.61V70.46h1.39c.64,0,1,.28,1,.82v.28a3,3,0,0,1,0,.42h0a3.1,3.1,0,0,1,2.84-1.7c1.79,0,2.59,1,2.59,2.84v3.21a.29.29,0,0,0,.33.32h.61v1.22h-1.43c-.67,0-1-.28-1-.94V73.44c0-1-.2-1.86-1.41-1.86a2.44,2.44,0,0,0-2.39,1.82,3.11,3.11,0,0,0-.13,1v3.47h-1.45V72Z"/><path class="cls-1" d="M270.27,74c0-1.93-1-2.49-2.13-2.49s-2.06.94-2.06,2.45.82,2.59,2.18,2.59c1,0,2-.62,2-2.55Zm-2.35-3.72a2.5,2.5,0,0,1,2.41,1.16h0V71.2c0-.43.24-.74.84-.74h1.4v1.21H272a.29.29,0,0,0-.32.3v5.59c0,2.44-1.9,3.38-3.81,3.38a6.12,6.12,0,0,1-2.58-.61l.49-1.15a4.84,4.84,0,0,0,2.06.5c1.31,0,2.39-.57,2.39-2.06v-.5a4.14,4.14,0,0,1,0-.47h0A2.42,2.42,0,0,1,268,77.78c-2.09,0-3.37-1.66-3.37-3.79s1.2-3.71,3.31-3.71Z"/><path class="cls-1" d="M274.34,72a.29.29,0,0,0-.33-.32h-.61V70.46h1.41c.69,0,1,.28,1,.9v3.52c0,1,.21,1.84,1.41,1.84a2.57,2.57,0,0,0,2.46-2.79V70.46h1.44v5.87a.29.29,0,0,0,.33.32H282v1.22h-1.39c-.64,0-.95-.3-.95-.82v-.28c0-.24,0-.43,0-.43h0A3.05,3.05,0,0,1,276.9,78c-1.7,0-2.56-.88-2.56-2.84V72Z"/><path class="cls-1" d="M285.79,76.9a2.26,2.26,0,0,0,2-2.36v-.25h-.37c-1.09,0-3.06.06-3.06,1.42a1.26,1.26,0,0,0,1.42,1.19Zm1.67-3.65h.33v-.07c0-1.3-.49-1.77-1.67-1.77-.36,0-1.24.09-1.24.57v.42h-1.36v-.73c0-1.21,1.88-1.39,2.61-1.39,2.45,0,3.1,1.26,3.1,2.9v3.15a.29.29,0,0,0,.33.32h.61v1.22h-1.35c-.67,0-.94-.33-.94-.85a3.13,3.13,0,0,1,0-.44h0a2.58,2.58,0,0,1-2.4,1.46,2.35,2.35,0,0,1-2.57-2.25c0-2.39,3.28-2.54,4.55-2.54Z"/><path class="cls-1" d="M296.53,74c0-1.93-1-2.49-2.13-2.49s-2.06.94-2.06,2.45.82,2.59,2.18,2.59c1,0,2-.62,2-2.55Zm-2.36-3.72a2.52,2.52,0,0,1,2.42,1.16h0V71.2c0-.43.24-.74.83-.74h1.41v1.21h-.6a.29.29,0,0,0-.33.3v5.59c0,2.44-1.89,3.38-3.8,3.38a6.12,6.12,0,0,1-2.58-.61l.49-1.15a4.84,4.84,0,0,0,2.06.5c1.31,0,2.39-.57,2.39-2.06v-.5c0-.24,0-.47,0-.47h0a2.43,2.43,0,0,1-2.26,1.13c-2.08,0-3.37-1.66-3.37-3.79s1.21-3.71,3.31-3.71Z"/><path class="cls-1" d="M305.11,73.3a1.78,1.78,0,0,0-1.78-1.89,2.16,2.16,0,0,0-2.22,1.89Zm-1.76-3a3.18,3.18,0,0,1,3.25,3.47c0,.19-.05.59-.05.59h-5.5a2.5,2.5,0,0,0,2.6,2.47,3.5,3.5,0,0,0,2.2-.86l.63,1A4.47,4.47,0,0,1,303.57,78a3.81,3.81,0,0,1-4-3.88,3.67,3.67,0,0,1,3.79-3.88Z"/><path class="cls-1" d="M314.89,76.81a2.65,2.65,0,1,0-2.58-2.66,2.58,2.58,0,0,0,2.58,2.66Zm0-6.53a3.88,3.88,0,1,1-4.06,3.87,3.91,3.91,0,0,1,4.06-3.87Z"/><path class="cls-1" d="M320.6,71.6h-.94V70.46h.94v-.25a2.56,2.56,0,0,1,2.85-2.75,3.39,3.39,0,0,1,.55,0v1.21a3.1,3.1,0,0,0-.37,0,1.41,1.41,0,0,0-1.58,1.55v.22h1.79V71.6h-1.79v6.27H320.6V71.6Z"/><path class="cls-1" d="M244.15,84.62a.29.29,0,0,0-.32-.32h-.61V83.09h1.43c.67,0,.95.28.95.91v2.88a5.9,5.9,0,0,1,0,.61h0a3.1,3.1,0,0,1,2.81-1.65c1.77,0,2.57,1,2.57,2.84v3.21a.29.29,0,0,0,.33.32h.61v1.21h-1.41c-.67,0-1-.27-1-.93V89c0-1-.22-1.86-1.43-1.86A2.46,2.46,0,0,0,245.74,89a2.84,2.84,0,0,0-.14,1v3.47h-1.45v-8.8Z"/><path class="cls-1" d="M258.16,88.86A1.77,1.77,0,0,0,256.39,87a2.15,2.15,0,0,0-2.22,1.89Zm-1.76-3a3.17,3.17,0,0,1,3.25,3.47c0,.19,0,.59,0,.59h-5.5a2.5,2.5,0,0,0,2.59,2.47,3.51,3.51,0,0,0,2.21-.86l.62,1a4.46,4.46,0,0,1-2.9,1.08,3.82,3.82,0,0,1-4-3.88,3.68,3.68,0,0,1,3.79-3.88Z"/><path class="cls-1" d="M263.57,92.46a2.26,2.26,0,0,0,2-2.36v-.25h-.37c-1.09,0-3.06.06-3.06,1.42a1.25,1.25,0,0,0,1.42,1.19Zm1.67-3.65h.32v-.07c0-1.3-.49-1.77-1.67-1.77-.35,0-1.23.09-1.23.57V88H261.3v-.73c0-1.21,1.88-1.39,2.61-1.39,2.45,0,3.1,1.26,3.1,2.9v3.15a.29.29,0,0,0,.33.32H268v1.21h-1.36c-.67,0-.94-.32-.94-.84a3.13,3.13,0,0,1,0-.44h0a2.56,2.56,0,0,1-2.4,1.46,2.35,2.35,0,0,1-2.56-2.26c0-2.38,3.28-2.53,4.55-2.53Z"/><path class="cls-1" d="M269.26,84.62a.29.29,0,0,0-.33-.32h-.61V83.09h1.43c.67,0,1,.28,1,.93v7.87a.28.28,0,0,0,.32.32h.61v1.21h-1.43c-.67,0-.95-.27-.95-.93V84.62Z"/><path class="cls-1" d="M273.09,87.16h-1V86h1V84h1.42v2h1.81v1.14h-1.81v3.4a1.47,1.47,0,0,0,1.6,1.66,1.66,1.66,0,0,0,.34,0v1.26a3.62,3.62,0,0,1-.51,0,2.58,2.58,0,0,1-2.88-2.76V87.16Z"/><path class="cls-1" d="M277.81,84.62a.29.29,0,0,0-.33-.32h-.61V83.09h1.43c.67,0,.95.28.95.91v2.88c0,.35,0,.61,0,.61h0a3.1,3.1,0,0,1,2.81-1.65c1.77,0,2.58,1,2.58,2.84v3.21a.29.29,0,0,0,.33.32h.61v1.21h-1.42c-.67,0-1-.27-1-.93V89c0-1-.23-1.86-1.44-1.86A2.47,2.47,0,0,0,279.39,89a2.84,2.84,0,0,0-.14,1v3.47h-1.44v-8.8Z"/><path class="cls-1" d="M290.28,85.84c.91,0,2.71.37,2.71,1.63v.76h-1.31v-.41c0-.53-.85-.76-1.4-.76a2.64,2.64,0,0,0,.07,5.28,3.41,3.41,0,0,0,2.34-1l.63,1a4.18,4.18,0,0,1-3.07,1.27,3.88,3.88,0,1,1,0-7.76Z"/><path class="cls-1" d="M297,92.46a2.26,2.26,0,0,0,2-2.36v-.25h-.38c-1.09,0-3.05.06-3.05,1.42A1.25,1.25,0,0,0,297,92.46Zm1.67-3.65H299v-.07c0-1.3-.49-1.77-1.67-1.77-.36,0-1.24.09-1.24.57V88h-1.35v-.73c0-1.21,1.88-1.39,2.61-1.39,2.44,0,3.1,1.26,3.1,2.9v3.15a.29.29,0,0,0,.33.32h.61v1.21h-1.36c-.67,0-.94-.32-.94-.84a3.13,3.13,0,0,1,0-.44h0a2.58,2.58,0,0,1-2.4,1.46,2.35,2.35,0,0,1-2.57-2.26c0-2.38,3.29-2.53,4.55-2.53Z"/><path class="cls-1" d="M302.85,87.55a.29.29,0,0,0-.33-.32h-.61V86h1.38c.65,0,1,.26,1,.86v.47a4.19,4.19,0,0,1,0,.51h0a2.59,2.59,0,0,1,2.39-1.93,3,3,0,0,1,.39,0v1.4a2.46,2.46,0,0,0-.43,0,2.27,2.27,0,0,0-2.12,1.74,4.59,4.59,0,0,0-.18,1.33v3h-1.45V87.55Z"/><path class="cls-1" d="M313.2,88.86A1.77,1.77,0,0,0,311.43,87a2.17,2.17,0,0,0-2.23,1.89Zm-1.76-3a3.17,3.17,0,0,1,3.25,3.47c0,.19,0,.59,0,.59h-5.51a2.52,2.52,0,0,0,2.6,2.47,3.51,3.51,0,0,0,2.21-.86l.62,1a4.47,4.47,0,0,1-2.91,1.08,3.81,3.81,0,0,1-4-3.88,3.67,3.67,0,0,1,3.79-3.88Z"/><path class="cls-2" d="M3.5,32.23S7.76,37.17,14,37.17c3.91,0,7.17-2.32,7.17-6.11C21.15,22.46,1,23.79,1,11,1,4.83,6.46,0,14.34,0c4.44,0,11.9,2,11.9,7.56v3.38H20.8V9c0-2.16-3.15-3.72-6.46-3.72C9.83,5.3,7,7.74,7,10.82c0,8.32,20.14,6.46,20.14,20,0,6.29-5,11.7-13.27,11.7A18.79,18.79,0,0,1,0,36.36l3.5-4.13Z"/><path class="cls-2" d="M27,37.29h2.63A1.21,1.21,0,0,0,30.94,36V0h5.57L55.75,26.89c1.59,2.28,3.61,5.77,3.61,5.77h.12a56.58,56.58,0,0,1-.43-5.77v-23c0-2.7,1.17-3.85,4-3.85h6.13V5.18H66.53A1.19,1.19,0,0,0,65.18,6.5v36H59.66L40.37,15.58c-1.59-2.28-3.55-5.77-3.55-5.77H36.7s.36,3.43.36,5.77v23c0,2.7-1.16,3.85-3.91,3.85H27V37.29Z"/><path class="cls-2" d="M90.43,37c8.47,0,15.35-7,15.35-16.06a15.32,15.32,0,1,0-30.63,0C75.15,30,82,37,90.43,37Zm0-37c12.09,0,21.51,9.13,21.51,20.94a21.48,21.48,0,1,1-42.95,0C69,9.13,78.35,0,90.43,0Z"/><path class="cls-2" d="M111.76,37.29h2.08A1.24,1.24,0,0,0,115.19,36l2.94-36h6.31l10.17,22.5c1,2.29,2.15,5.35,2.15,5.35h.12S138,24.79,139,22.5L149.19,0h6.31l2.94,36a1.24,1.24,0,0,0,1.34,1.32h2v5.18h-5.45c-2.76,0-3.74-1.15-3.93-3.85l-1.77-22.44c-.19-2.53-.12-6.25-.12-6.25h-.13s-1.22,4-2.26,6.25l-8.76,18.65h-5.15l-8.76-18.65a66.45,66.45,0,0,1-2.32-6.31H123s0,3.78-.13,6.31L121.2,38.62c-.19,2.7-1.17,3.85-4,3.85h-5.46V37.29Z"/><path class="cls-2" d="M165.62,5.18h-4V0h25.42C189.81,0,191,1.15,191,3.85V9.21H185.4V6.5a1.19,1.19,0,0,0-1.35-1.32H171.74V18.47h15.13v5.17H171.74V36a1.21,1.21,0,0,0,1.35,1.32h12.62A1.21,1.21,0,0,0,187.05,36V33.26h5.64v5.36c0,2.7-1.16,3.85-3.92,3.85H169.54c-2.76,0-3.92-1.15-3.92-3.85V5.18Z"/><path class="cls-2" d="M204,37.29h5.63c9.62,0,15.93-5.65,15.93-16.11s-6.38-16-15.93-16h-7V36A1.21,1.21,0,0,0,204,37.29ZM196.49,5.18h-4V0H210C223.2,0,231.9,7.76,231.9,21.18S223.2,42.47,210,42.47h-9.61c-2.76,0-3.93-1.15-3.93-3.85V5.18Z"/><path class="cls-3" d="M263.06,0c5.63,0,15.7,2.33,15.7,8.9v4h-5.45V10.59c0-3.44-5.92-5.18-10.13-5.18-8.41,0-14.93,6.23-14.93,15.47,0,9,6.58,16.12,15.11,16.12a18.67,18.67,0,0,0,13.21-5.59l3.19,4.19a22.81,22.81,0,0,1-16.46,6.87c-12.5,0-21.21-9.48-21.21-21.59A20.48,20.48,0,0,1,263.06,0Z"/><path class="cls-3" d="M295.9,5.17h-8.7a1.2,1.2,0,0,0-1.35,1.33V9.2H280.4V3.61c0-2.71.92-3.61,3.68-3.61h29.76c2.76,0,3.68.9,3.68,3.61V9.2h-5.45V6.5a1.2,1.2,0,0,0-1.35-1.33H302v37.3H295.9V5.17Z"/></svg>